Coordinates
version=1
nRows=17
nColumns=38
inDegrees=no

Units are S.I. units (second, meters, Newtons, ...)
If the header above contains a line with 'inDegrees', this indicates whether rotational values are in degrees (yes) or radians (no).

endheader
time	pelvis_tilt	pelvis_list	pelvis_rotation	pelvis_tx	pelvis_ty	pelvis_tz	hip_flexion_r	hip_adduction_r	hip_rotation_r	knee_angle_r	ankle_angle_r	subtalar_angle_r	mtp_angle_r	hip_flexion_l	hip_adduction_l	hip_rotation_l	knee_angle_l	ankle_angle_l	subtalar_angle_l	mtp_angle_l	lumbar_extension	lumbar_bending	lumbar_rotation	arm_flex_r	arm_add_r	arm_rot_r	elbow_flex_r	pro_sup_r	wrist_flex_r	wrist_dev_r	arm_flex_l	arm_add_l	arm_rot_l	elbow_flex_l	pro_sup_l	wrist_flex_l	wrist_dev_l
5.01	0.656945	1.53001	-2.58089	0.835656	-0.376534	0.913722	0.167657	-0.184346	-0.00950317	0.0989065	0.0275083	0	0	-0.204101	-0.0516779	-0.26264	0.0698507	0.151733	0	0	-0.138985	-0.0336774	-0.242502	-0.226838	-0.184258	0.226554	0.682407	1.56388	0	0	-0.119697	-0.382217	0.327592	0.758406	1.349	0	0
5.02	0.639162	1.52951	-2.55339	0.830925	-0.379317	0.913295	0.16003	-0.181043	-0.0210667	0.0965932	0.00603428	0	0	-0.207209	-0.0589124	-0.257194	0.0725901	0.15275	0	0	-0.139549	-0.0322232	-0.23547	-0.216791	-0.192154	0.230252	0.683051	1.56591	0	0	-0.115652	-0.38092	0.324496	0.747979	1.35388	0	0
5.03	0.567218	1.52987	-2.47144	0.826149	-0.381969	0.913198	0.152804	-0.175552	-0.0344617	0.0973284	-0.0132991	0	0	-0.210867	-0.0686519	-0.251568	0.0764946	0.153522	0	0	-0.141924	-0.0282606	-0.228453	-0.20784	-0.199901	0.231111	0.686947	1.56589	0	0	-0.110721	-0.379992	0.325812	0.7376	1.3369	0	0
5.04	0.475936	1.53103	-2.36982	0.821362	-0.384411	0.913271	0.147248	-0.168464	-0.0456378	0.102345	-0.0207376	0	0	-0.213022	-0.0800536	-0.246979	0.0817193	0.153854	0	0	-0.14487	-0.022767	-0.221383	-0.19926	-0.207376	0.230358	0.692464	1.56399	0	0	-0.10558	-0.377864	0.322357	0.726748	1.33994	0	0
5.05	0.362147	1.53274	-2.2455	0.816589	-0.386694	0.913458	0.143034	-0.159955	-0.0534267	0.111676	-0.0159475	0	0	-0.212878	-0.0931619	-0.244488	0.0898849	0.154639	0	0	-0.147921	-0.0157767	-0.214721	-0.190938	-0.214999	0.230698	0.697615	1.56139	0	0	-0.100523	-0.37472	0.316831	0.715459	1.34324	0	0
5.06	0.23369	1.5347	-2.10597	0.81188	-0.389065	0.913714	0.139718	-0.150867	-0.0607561	0.123136	-0.00557106	0	0	-0.211051	-0.107257	-0.24261	0.099664	0.155466	0	0	-0.150048	-0.00783358	-0.209112	-0.183273	-0.222928	0.231959	0.702532	1.55784	0	0	-0.0966	-0.370581	0.308988	0.704217	1.34764	0	0
5.07	0.117495	1.53634	-1.97879	0.80718	-0.391547	0.914	0.138233	-0.14259	-0.0702478	0.136573	0.00532825	0	0	-0.208222	-0.120747	-0.240411	0.109751	0.155731	0	0	-0.150995	-0.000516136	-0.204003	-0.176357	-0.230811	0.2337	0.708211	1.55116	0	0	-0.0941975	-0.366402	0.300154	0.69435	1.35199	0	0
5.08	0.0166799	1.53724	-1.86733	0.802309	-0.394063	0.914361	0.136606	-0.134871	-0.0792587	0.148986	0.0142024	0	0	-0.204795	-0.133607	-0.238269	0.120807	0.155363	0	0	-0.151531	0.00548455	-0.1993	-0.169723	-0.238978	0.240121	0.714334	1.53525	0	0	-0.0934416	-0.361926	0.287308	0.68563	1.35979	0	0
5.09	-0.0488711	1.53686	-1.79217	0.797166	-0.396641	0.91483	0.132633	-0.127873	-0.0846421	0.157448	0.0212087	0	0	-0.202991	-0.14464	-0.234165	0.130062	0.152319	0	0	-0.152069	0.00916853	-0.19411	-0.163768	-0.246242	0.246405	0.720177	1.51362	0	0	-0.0944918	-0.358888	0.275943	0.680588	1.36644	0	0
5.1	-0.0640383	1.53726	-1.76654	0.792078	-0.399086	0.915229	0.128896	-0.122115	-0.0898251	0.163707	0.0277393	0	0	-0.197743	-0.154872	-0.231096	0.142182	0.149341	0	0	-0.151231	0.0109064	-0.190194	-0.158051	-0.251978	0.252177	0.724456	1.50163	0	0	-0.0964906	-0.357548	0.267787	0.678365	1.3684	0	0
5.11	-0.0647351	1.53829	-1.75425	0.786999	-0.401361	0.91566	0.126932	-0.115356	-0.104639	0.171385	0.0338091	0	0	-0.18932	-0.165745	-0.228589	0.157664	0.146648	0	0	-0.150054	0.011851	-0.187865	-0.152154	-0.256549	0.257913	0.728301	1.49013	0	0	-0.0993585	-0.357071	0.259305	0.678271	1.36924	0	0
5.12	-0.0289618	1.5395	-1.77817	0.781949	-0.403558	0.916113	0.123507	-0.109959	-0.115237	0.174835	0.0383499	0	0	-0.178834	-0.175746	-0.225393	0.175418	0.143384	0	0	-0.14876	0.0113718	-0.18601	-0.146741	-0.260437	0.263448	0.732477	1.47736	0	0	-0.102772	-0.357414	0.251526	0.680065	1.36893	0	0
5.13	0.0253417	1.54048	-1.82046	0.776992	-0.405733	0.916617	0.118205	-0.10542	-0.121012	0.174785	0.0418985	0	0	-0.166837	-0.185291	-0.222087	0.19559	0.139955	0	0	-0.147146	0.010172	-0.184328	-0.14194	-0.263963	0.268068	0.736977	1.46714	0	0	-0.106142	-0.358274	0.246062	0.682409	1.36693	0	0
5.14	0.0883133	1.54133	-1.87017	0.772184	-0.407952	0.917175	0.111646	-0.10114	-0.127801	0.172631	0.0452275	0	0	-0.15306	-0.194797	-0.217396	0.218033	0.136699	0	0	-0.145209	0.00875007	-0.184071	-0.137581	-0.266643	0.271559	0.741146	1.46005	0	0	-0.109918	-0.359618	0.242314	0.685467	1.36353	0	0
5.15	0.166561	1.54265	-1.93546	0.76752	-0.410045	0.917705	0.10597	-0.0972324	-0.135485	0.170201	0.0485486	0	0	-0.137085	-0.203799	-0.212305	0.242681	0.133814	0	0	-0.142965	0.00729138	-0.183668	-0.133381	-0.269003	0.274288	0.745682	1.45621	0	0	-0.113767	-0.36093	0.239458	0.689459	1.35921	0	0
5.16	0.279871	1.54504	-2.03707	0.763	-0.411889	0.918114	0.103249	-0.0940158	-0.144651	0.169386	0.0525614	0	0	-0.117915	-0.211957	-0.207344	0.270064	0.131283	0	0	-0.139853	0.00587066	-0.182088	-0.129337	-0.271537	0.277053	0.750444	1.45588	0	0	-0.117137	-0.361849	0.237217	0.69366	1.35494	0	0
5.17	0.388904	1.54765	-2.13507	0.758619	-0.413537	0.918514	0.100978	-0.0901764	-0.152802	0.168109	0.0560608	0	0	-0.0966078	-0.220538	-0.202947	0.30079	0.129727	0	0	-0.136741	0.00535201	-0.179586	-0.125772	-0.275368	0.28395	0.757982	1.43601	0	0	-0.119827	-0.36416	0.243654	0.699844	1.32638	0	0
